<svg width="430" height="432" viewBox="0 0 430 432" fill="none" xmlns="http://www.w3.org/2000/svg">
<path d="M306.956 37.4046C331.556 66.4046 336.856 110.905 360.056 155.705C383.256 200.605 424.456 245.905 429.356 294.405C434.156 342.805 402.556 394.405 357.356 416.805C312.256 439.305 253.456 432.805 206.256 416.905C158.956 400.905 123.356 375.705 99.5557 346.305C75.7557 316.805 63.8557 283.205 43.3557 246.205C22.8557 209.205 -6.34432 168.805 1.45568 139.105C9.25568 109.405 54.0557 90.4046 92.4557 65.8046C130.756 41.3046 162.756 11.2046 200.656 3.00457C238.556 -5.19543 282.456 8.40456 306.956 37.4046Z" fill="#224841"/>
</svg>
